<svg xmlns="http://www.w3.org/2000/svg" aria-hidden="true" style="position:absolute;width:0;height:0;overflow:hidden">
    <defs>
        <symbol id="twitter" viewBox="0 0 32 32">
            <path
                d="M32 5.824c-1.19.535-2.458.89-3.78 1.063a6.665 6.665 0 0 0 2.886-3.719 12.93 12.93 0 0 1-4.16 1.629 6.498 6.498 0 0 0-4.792-2.129c-3.632 0-6.556 3.024-6.556 6.73 0 .533.044 1.046.152 1.534-5.454-.273-10.28-2.954-13.522-7.038a6.907 6.907 0 0 0-.898 3.401c0 2.33 1.17 4.396 2.914 5.592a6.353 6.353 0 0 1-2.964-.829v.074c0 3.27 2.274 5.986 5.256 6.611a6.383 6.383 0 0 1-1.72.222c-.42 0-.844-.025-1.242-.115.85 2.665 3.262 4.624 6.13 4.687a12.973 12.973 0 0 1-8.134 2.87c-.538 0-1.054-.025-1.57-.092a18.135 18.135 0 0 0 10.064 3.019c12.072 0 18.672-10.256 18.672-19.147 0-.297-.01-.585-.024-.87 1.302-.948 2.396-2.131 3.288-3.493z" />
        </symbol>
        <symbol id="tiktok" viewBox="0 0 32 32">
            <path
                d="M21.333 0H16v19.637c0 2.459.057 5.45-2.119 6.593-.505.265-1.124.437-1.881.437-3.333 0-5.296-1.899-5.333-4.667 0-4.667 6-4.667 6-4.667V12S1.334 10.667 1.334 22c0 5.71 4.959 10.145 10.667 10 5.166-.131 10-5.333 10-8.667V10.666a9.106 9.106 0 0 0 6.438 2.667h.895V8a8.787 8.787 0 0 1-7.17-5.718L21.334 0z" />
        </symbol>
        <symbol id="question-house" viewBox="0 0 31 32">
            <path stroke-linecap="round" stroke-linejoin="round" stroke-width="1.781"
                d="M25.973 26.057H12.014c-1.038 0-1.879-.955-1.879-2.133V12.572l8.859-6.629 8.859 6.629v11.352c0 1.178-.841 2.133-1.879 2.133z" />
            <path stroke-linecap="round" stroke-linejoin="round" stroke-width="1.781"
                d="M18.859 26.057H4.899c-1.038 0-1.879-.955-1.879-2.133V12.572l8.859-6.629 8.859 6.629v11.352c0 1.178-.841 2.133-1.879 2.133z" />
            <path
                d="M11.876 22.277c-1.271 0-2.455-.714-3.169-1.909-.187-.314-.115-.74.161-.952s.652-.131.839.183c.489.819 1.299 1.307 2.169 1.307s1.68-.489 2.169-1.307c.187-.313.563-.395.839-.183s.348.639.161.952c-.714 1.195-1.898 1.909-3.169 1.909zM15.682 16.401c.486 0 .879-.447.879-.998s-.394-.999-.88-.999-.879.447-.879.999.394.998.879.998zM8.963 15.403c0 .551-.394.998-.88.998s-.879-.447-.879-.998c0-.551.394-.999.879-.999s.88.447.88.999z"
                fill="#d8ccbf" stroke="none" />
        </symbol>
        <symbol id="quatation" viewBox="0 0 38 32">
            <path
                d="M11.682 20.656c3.302-6.095 2.895-11.937 2.794-12.444C13.37 2.683 9.642 2.23 8.889 2.117c-5.079-.762-6.857 3.81-6.857 5.841 0 4.571 5.079 5.333 5.079 5.333s6.603 1.016 4.571 7.365z" />
            <path stroke-width="4.064"
                d="M4.825 30.307s4.825-5.333 6.857-9.651m0 0c3.302-6.095 2.895-11.937 2.794-12.444C13.37 2.683 9.642 2.23 8.889 2.117c-5.079-.762-6.857 3.81-6.857 5.841 0 4.571 5.079 5.333 5.079 5.333s6.603 1.016 4.571 7.365z" />
            <path
                d="M32.254 20.741c3.302-6.095 2.895-11.937 2.794-12.444-1.106-5.529-4.834-5.982-5.587-6.095-5.079-.762-6.857 3.81-6.857 5.841 0 4.571 5.079 5.333 5.079 5.333s6.603 1.016 4.571 7.365z" />
            <path stroke-width="4.064"
                d="M25.397 30.392s4.825-5.333 6.857-9.651m0 0c3.302-6.095 2.895-11.937 2.794-12.444-1.106-5.529-4.834-5.982-5.587-6.095-5.079-.762-6.857 3.81-6.857 5.841 0 4.571 5.079 5.333 5.079 5.333s6.603 1.016 4.571 7.365z" />
        </symbol>
        <symbol id="instagram" viewBox="0 0 32 32">
            <path
                d="M31.969 9.408c-.075-1.7-.35-2.869-.744-3.882a7.803 7.803 0 0 0-1.85-2.838A7.867 7.867 0 0 0 26.543.844C25.524.45 24.361.175 22.661.1 20.948.019 20.404 0 16.06 0s-4.888.019-6.595.094c-1.7.075-2.869.35-3.882.744a7.803 7.803 0 0 0-2.838 1.85A7.867 7.867 0 0 0 .901 5.52C.507 6.539.232 7.702.157 9.402c-.081 1.713-.1 2.257-.1 6.601s.019 4.888.094 6.595c.075 1.7.35 2.869.744 3.882a7.895 7.895 0 0 0 1.85 2.838 7.867 7.867 0 0 0 2.832 1.844c1.019.394 2.182.669 3.882.744 1.706.075 2.25.094 6.595.094s4.888-.019 6.595-.094c1.7-.075 2.869-.35 3.882-.744a8.181 8.181 0 0 0 4.682-4.682c.394-1.019.669-2.182.744-3.882.075-1.707.094-2.25.094-6.595s-.006-4.888-.081-6.595zm-2.882 13.065c-.069 1.563-.331 2.407-.55 2.969a5.31 5.31 0 0 1-3.038 3.038c-.563.219-1.413.481-2.969.55-1.688.075-2.194.094-6.464.094s-4.782-.019-6.464-.094c-1.563-.069-2.407-.331-2.969-.55a4.926 4.926 0 0 1-1.838-1.194 4.974 4.974 0 0 1-1.194-1.838c-.219-.563-.481-1.413-.55-2.969-.075-1.688-.094-2.194-.094-6.464s.019-4.782.094-6.464c.069-1.563.331-2.407.55-2.969a4.868 4.868 0 0 1 1.2-1.838A4.974 4.974 0 0 1 6.639 3.55c.563-.219 1.413-.481 2.969-.55 1.688-.075 2.194-.094 6.464-.094 4.276 0 4.782.019 6.464.094 1.563.069 2.407.331 2.969.55a4.914 4.914 0 0 1 1.838 1.194 4.974 4.974 0 0 1 1.194 1.838c.219.563.481 1.413.55 2.969.075 1.688.094 2.194.094 6.464s-.019 4.77-.094 6.458z" />
            <path
                d="M16.059 7.783c-4.538 0-8.22 3.682-8.22 8.22s3.682 8.22 8.22 8.22c4.539 0 8.22-3.682 8.22-8.22s-3.682-8.22-8.22-8.22zm0 13.552a5.333 5.333 0 0 1 0-10.664 5.333 5.333 0 0 1 0 10.664zM26.524 7.457a1.919 1.919 0 1 1-3.838 0 1.919 1.919 0 0 1 3.838 0z" />
        </symbol>
        <symbol id="footer-house" viewBox="0 0 35 32">
            <path fill="none" stroke="#fff" stroke-linecap="round" stroke-linejoin="round" stroke-width="17.454"
                d="M25.474 25.932H9.689a2.129 2.129 0 0 1-2.125-2.133V12.447l10.017-6.629 10.017 6.629v11.352a2.129 2.129 0 0 1-2.125 2.133z"
                style="stroke:var(--color1, #fff)" />
            <path fill="#7837f3"
                d="M17.097 22.289a4.32 4.32 0 0 1-3.583-1.909c-.212-.313-.13-.74.182-.952s.737-.131.949.183a2.954 2.954 0 0 0 4.904 0c.212-.313.636-.396.949-.183s.394.639.182.952a4.32 4.32 0 0 1-3.583 1.909zM21.4 16.401c.549 0 .994-.447.994-.998s-.445-.999-.994-.999-.994.447-.994.999c0 .551.445.998.994.998zM13.802 15.403c0 .551-.445.998-.994.998s-.995-.447-.995-.998c0-.551.445-.999.995-.999s.994.447.994.999z"
                style="fill:var(--color2, #7837f3)" />
            <path fill="#7837f3"
                d="M21.323 14.884a.518.518 0 0 0 0 1.038h.153a.518.518 0 0 0 0-1.038h-.153zM12.731 14.884a.518.518 0 0 0 0 1.038h.153a.518.518 0 0 0 0-1.038h-.153z"
                style="fill:var(--color2, #7837f3)" />
        </symbol>
        <symbol id="arrow-down" viewBox="0 0 27 32">
            <path
                d="M15.413.895v22.993l8.839-8.867 2.182 2.154-12.559 12.532L1.344 17.175l2.126-2.154 8.867 8.867V.895h3.077z" />
        </symbol>
        <symbol id="arrow-right" viewBox="0 0 40 32">
            <path
                d="m21.807 32-2.625-2.591 10.807-10.807H2v-3.75h27.989L19.182 4.079l2.625-2.625L37.08 16.727 21.807 32z" />
        </symbol>
        <symbol id="reviews-logo" viewBox="0 0 121 32">
            <path
                d="M24.649.432H0v1.73s2.158-.004 3.027.865.865 3.027.865 3.027v18.347s.261 2.932-.865 4.139C2.15 29.481 0 29.837 0 29.837v1.297h15.568v-1.297s-2.48-.238-3.459-1.297c-1.121-1.213-.865-4.139-.865-4.139v-7.104h3.483c.531 0 1.034.244 1.356.666.27.354.585.774.783 1.064.603.881.865 2.162.865 2.162h1.297V10.811h-1.297s-.171 1.58-.865 2.595c-.2.292-.518.685-.79 1.009-.318.379-.791.59-1.286.59h-3.546V3.028h4.173c.959 0 1.918.148 2.79.547.849.389 1.905.957 2.551 1.615 1.218 1.24 2.162 4.324 2.162 4.324l1.73-.173V.433z" />
            <path
                d="M32 8.649c-4.757 0-10.811 3.892-10.811 11.676S25.901 31.877 32 32.001c6.213.126 10.811-3.459 10.811-11.676S38.214 8.649 32 8.649zm-3.892 11.675c0-4.171.865-9.514 3.892-9.514s4.464 5.557 4.324 9.946c-.13 4.079-1.73 9.514-4.324 9.514s-3.892-5.775-3.892-9.946zM42.811 10.811c.075-.227.432-.432.432-.432l9.081-1.73v4.324s2.595-4.324 6.054-4.324c2.595 0 3.027.865 3.027.865l-2.595 6.054s-2.343-1.025-3.892-.865c-.804.083-1.877.536-2.351.751a.417.417 0 0 0-.243.383v10.109s-.246 2.62.865 3.459c.82.619 2.595.432 2.595.432v1.297H42.997v-1.107s1.341-.122 1.976-.623c1.093-.863.865-3.459.865-3.459V14.939c0-.732-.049-1.48-.366-2.14-.132-.275-.299-.538-.498-.692-.551-.425-1.73-.432-1.73-.432s-.357-.206-.432-.432a.607.607 0 0 1 0-.432z" />
            <path
                d="M59.676 1.73 68.757 0v10.378s3.1-1.297 5.189-1.297h.046c.784-.013 8.603-.146 8.603 11.244 0 11.676-10.378 11.676-11.676 11.676-3.226 0-8.216-.865-8.216-.865V9.253c0-1.843.31-3.94-.865-5.36-.628-.759-2.162-1.297-2.162-1.297v-.865zm9.081 10.378V30.27h1.071c1.01 0 2.046-.131 2.819-.782 1.274-1.072 3.029-3.498 3.029-8.732 0-11.676-6.919-8.649-6.919-8.649zM90.811 19.631h12.973s.865-10.983-9.081-10.983c-11.252 0-10.811 11.848-10.811 11.848s-.432 11.17 10.811 11.243c6.919.045 8.216-3.653 8.216-3.892s-.194-.432-.432-.432c-.432 0-2.562 1.317-4.324 1.297-2.418-.027-4.03-.774-5.622-2.595-1.725-1.974-1.73-6.486-1.73-6.486zm6.054-2.162h-6.054s.439-6.919 3.459-6.919c2.595 0 2.595 6.919 2.595 6.919zM105.081 23.784v6.684s3.459 1.099 3.892 1.099h6.054c.432 0 3.229-1.147 3.892-1.73.7-.616 2.162-2.162 2.162-3.892v-3.892c0-1.297-1.612-2.251-2.595-3.027s-4.324-1.73-5.189-2.162c-.532-.266-2.162-1.73-2.162-2.595 0-.432 0-3.892 3.027-3.892 3.892 0 5.189 5.622 5.189 5.622l1.297-.432V9.945s-3.459-1.297-6.487-1.297-5.622 1.297-6.487 2.162c-.517.517-2.162 1.73-2.162 5.189 0 2.162 0 2.595 2.595 4.757 1.741 1.45 3.892 1.73 5.189 2.595s2.162 1.47 2.162 3.027c0 .432 0 3.027-3.459 3.027-2.595 0-3.459-1.297-3.892-1.73-.823-.822-2.162-3.892-2.162-3.892h-.865z" />
        </symbol>
    </defs>
</svg>