<svg xmlns="http://www.w3.org/2000/svg" aria-hidden="true" style="position:absolute;width:0;height:0;overflow:hidden">
    <defs>
        <symbol id="twitter" viewBox="0 0 32 32">
            <path
                d="M32 5.824c-1.19.535-2.458.89-3.78 1.063a6.665 6.665 0 0 0 2.886-3.719 12.93 12.93 0 0 1-4.16 1.629 6.498 6.498 0 0 0-4.792-2.129c-3.632 0-6.556 3.024-6.556 6.73 0 .533.044 1.046.152 1.534-5.454-.273-10.28-2.954-13.522-7.038a6.907 6.907 0 0 0-.898 3.401c0 2.33 1.17 4.396 2.914 5.592a6.353 6.353 0 0 1-2.964-.829v.074c0 3.27 2.274 5.986 5.256 6.611a6.383 6.383 0 0 1-1.72.222c-.42 0-.844-.025-1.242-.115.85 2.665 3.262 4.624 6.13 4.687a12.973 12.973 0 0 1-8.134 2.87c-.538 0-1.054-.025-1.57-.092a18.135 18.135 0 0 0 10.064 3.019c12.072 0 18.672-10.256 18.672-19.147 0-.297-.01-.585-.024-.87 1.302-.948 2.396-2.131 3.288-3.493z" />
        </symbol>
        <symbol id="tiktok" viewBox="0 0 32 32">
            <path
                d="M21.333 0H16v19.637c0 2.459.057 5.45-2.119 6.593-.505.265-1.124.437-1.881.437-3.333 0-5.296-1.899-5.333-4.667 0-4.667 6-4.667 6-4.667V12S1.334 10.667 1.334 22c0 5.71 4.959 10.145 10.667 10 5.166-.131 10-5.333 10-8.667V10.666a9.106 9.106 0 0 0 6.438 2.667h.895V8a8.787 8.787 0 0 1-7.17-5.718L21.334 0z" />
        </symbol>
        <symbol id="question-house" viewBox="0 0 31 32">
            <path stroke-linecap="round" stroke-linejoin="round" stroke-width="1.781"
                d="M25.973 26.057H12.014c-1.038 0-1.879-.955-1.879-2.133V12.572l8.859-6.629 8.859 6.629v11.352c0 1.178-.841 2.133-1.879 2.133z" />
            <path stroke-linecap="round" stroke-linejoin="round" stroke-width="1.781"
                d="M18.859 26.057H4.899c-1.038 0-1.879-.955-1.879-2.133V12.572l8.859-6.629 8.859 6.629v11.352c0 1.178-.841 2.133-1.879 2.133z" />
            <path
                d="M11.876 22.277c-1.271 0-2.455-.714-3.169-1.909-.187-.314-.115-.74.161-.952s.652-.131.839.183c.489.819 1.299 1.307 2.169 1.307s1.68-.489 2.169-1.307c.187-.313.563-.395.839-.183s.348.639.161.952c-.714 1.195-1.898 1.909-3.169 1.909zM15.682 16.401c.486 0 .879-.447.879-.998s-.394-.999-.88-.999-.879.447-.879.999.394.998.879.998zM8.963 15.403c0 .551-.394.998-.88.998s-.879-.447-.879-.998c0-.551.394-.999.879-.999s.88.447.88.999z"
                fill="#d8ccbf" stroke="none" />
        </symbol>
        <symbol id="quatation" viewBox="0 0 38 32">
            <path
                d="M11.682 20.656c3.302-6.095 2.895-11.937 2.794-12.444C13.37 2.683 9.642 2.23 8.889 2.117c-5.079-.762-6.857 3.81-6.857 5.841 0 4.571 5.079 5.333 5.079 5.333s6.603 1.016 4.571 7.365z" />
            <path stroke-width="4.064"
                d="M4.825 30.307s4.825-5.333 6.857-9.651m0 0c3.302-6.095 2.895-11.937 2.794-12.444C13.37 2.683 9.642 2.23 8.889 2.117c-5.079-.762-6.857 3.81-6.857 5.841 0 4.571 5.079 5.333 5.079 5.333s6.603 1.016 4.571 7.365z" />
            <path
                d="M32.254 20.741c3.302-6.095 2.895-11.937 2.794-12.444-1.106-5.529-4.834-5.982-5.587-6.095-5.079-.762-6.857 3.81-6.857 5.841 0 4.571 5.079 5.333 5.079 5.333s6.603 1.016 4.571 7.365z" />
            <path stroke-width="4.064"
                d="M25.397 30.392s4.825-5.333 6.857-9.651m0 0c3.302-6.095 2.895-11.937 2.794-12.444-1.106-5.529-4.834-5.982-5.587-6.095-5.079-.762-6.857 3.81-6.857 5.841 0 4.571 5.079 5.333 5.079 5.333s6.603 1.016 4.571 7.365z" />
        </symbol>
        <symbol id="instagram" viewBox="0 0 32 32">
            <path
                d="M31.969 9.408c-.075-1.7-.35-2.869-.744-3.882a7.803 7.803 0 0 0-1.85-2.838A7.867 7.867 0 0 0 26.543.844C25.524.45 24.361.175 22.661.1 20.948.019 20.404 0 16.06 0s-4.888.019-6.595.094c-1.7.075-2.869.35-3.882.744a7.803 7.803 0 0 0-2.838 1.85A7.867 7.867 0 0 0 .901 5.52C.507 6.539.232 7.702.157 9.402c-.081 1.713-.1 2.257-.1 6.601s.019 4.888.094 6.595c.075 1.7.35 2.869.744 3.882a7.895 7.895 0 0 0 1.85 2.838 7.867 7.867 0 0 0 2.832 1.844c1.019.394 2.182.669 3.882.744 1.706.075 2.25.094 6.595.094s4.888-.019 6.595-.094c1.7-.075 2.869-.35 3.882-.744a8.181 8.181 0 0 0 4.682-4.682c.394-1.019.669-2.182.744-3.882.075-1.707.094-2.25.094-6.595s-.006-4.888-.081-6.595zm-2.882 13.065c-.069 1.563-.331 2.407-.55 2.969a5.31 5.31 0 0 1-3.038 3.038c-.563.219-1.413.481-2.969.55-1.688.075-2.194.094-6.464.094s-4.782-.019-6.464-.094c-1.563-.069-2.407-.331-2.969-.55a4.926 4.926 0 0 1-1.838-1.194 4.974 4.974 0 0 1-1.194-1.838c-.219-.563-.481-1.413-.55-2.969-.075-1.688-.094-2.194-.094-6.464s.019-4.782.094-6.464c.069-1.563.331-2.407.55-2.969a4.868 4.868 0 0 1 1.2-1.838A4.974 4.974 0 0 1 6.639 3.55c.563-.219 1.413-.481 2.969-.55 1.688-.075 2.194-.094 6.464-.094 4.276 0 4.782.019 6.464.094 1.563.069 2.407.331 2.969.55a4.914 4.914 0 0 1 1.838 1.194 4.974 4.974 0 0 1 1.194 1.838c.219.563.481 1.413.55 2.969.075 1.688.094 2.194.094 6.464s-.019 4.77-.094 6.458z" />
            <path
                d="M16.059 7.783c-4.538 0-8.22 3.682-8.22 8.22s3.682 8.22 8.22 8.22c4.539 0 8.22-3.682 8.22-8.22s-3.682-8.22-8.22-8.22zm0 13.552a5.333 5.333 0 0 1 0-10.664 5.333 5.333 0 0 1 0 10.664zM26.524 7.457a1.919 1.919 0 1 1-3.838 0 1.919 1.919 0 0 1 3.838 0z" />
        </symbol>
        <symbol id="footer-house" viewBox="0 0 35 32">
            <path fill="none" stroke="#fff" stroke-linecap="round" stroke-linejoin="round" stroke-width="17.454"
                d="M25.474 25.932H9.689a2.129 2.129 0 0 1-2.125-2.133V12.447l10.017-6.629 10.017 6.629v11.352a2.129 2.129 0 0 1-2.125 2.133z"
                style="stroke:var(--color1, #fff)" />
            <path fill="#7837f3"
                d="M17.097 22.289a4.32 4.32 0 0 1-3.583-1.909c-.212-.313-.13-.74.182-.952s.737-.131.949.183a2.954 2.954 0 0 0 4.904 0c.212-.313.636-.396.949-.183s.394.639.182.952a4.32 4.32 0 0 1-3.583 1.909zM21.4 16.401c.549 0 .994-.447.994-.998s-.445-.999-.994-.999-.994.447-.994.999c0 .551.445.998.994.998zM13.802 15.403c0 .551-.445.998-.994.998s-.995-.447-.995-.998c0-.551.445-.999.995-.999s.994.447.994.999z"
                style="fill:var(--color2, #7837f3)" />
            <path fill="#7837f3"
                d="M21.323 14.884a.518.518 0 0 0 0 1.038h.153a.518.518 0 0 0 0-1.038h-.153zM12.731 14.884a.518.518 0 0 0 0 1.038h.153a.518.518 0 0 0 0-1.038h-.153z"
                style="fill:var(--color2, #7837f3)" />
        </symbol>
        <symbol id="arrow-down" viewBox="0 0 27 32">
            <path
                d="M15.413.895v22.993l8.839-8.867 2.182 2.154-12.559 12.532L1.344 17.175l2.126-2.154 8.867 8.867V.895h3.077z" />
        </symbol>
    </defs>
</svg>